<?xml version="1.0" encoding="UTF-8"?>
<svg width="140px" height="19px" viewBox="0 0 140 19" version="1.1" xmlns="http://www.w3.org/2000/svg" xmlns:xlink="http://www.w3.org/1999/xlink">
    <!-- Generator: Sketch 51.3 (57544) - http://www.bohemiancoding.com/sketch -->
    <title>logo</title>
    <desc>Created with Sketch.</desc>
    <defs></defs>
    <g id="Symbols" stroke="none" stroke-width="1" fill="none" fill-rule="evenodd">
        <g id="header" transform="translate(-20.000000, -22.000000)">
            <g id="logo">
                <g transform="translate(20.000000, 22.000000)">
                    <g transform="translate(19.000000, 9.290323) scale(1, -1) translate(-19.000000, -9.290323) translate(1.000000, 0.000000)">
                        <path d="M17.9624819,15.714 C17.9624819,15.714 17.9624819,15.714 17.9616145,15.7133494 C17.9616145,15.7133494 17.9616145,15.7126988 17.9605301,15.7122651 C13.0339518,11.6499036 11.8895422,7.08787952 10.7833012,2.67679518 C10.551253,1.75185542 10.3250602,0.872457831 10.0708916,0 L0,0 C1.53520482,5.47633735 6.96860241,15.7677831 12.6125783,17.2804337 C14.5268675,17.7948434 16.3277349,17.2826024 17.9624819,15.7604096 C17.9635663,15.7604096 17.9624819,15.759759 17.9635663,15.7593253 C17.9635663,15.7591084 17.9644337,15.7591084 17.9644337,15.7586747 C17.9681205,15.7556386 17.9676867,15.7513012 17.9681205,15.7476145 C17.9694217,15.743494 17.9724578,15.740241 17.9724578,15.7361205 C17.9724578,15.7315663 17.9694217,15.7283133 17.9681205,15.7248434 C17.9661687,15.7209398 17.9661687,15.7168193 17.9624819,15.714" id="Fill-29" fill="#9E0B0F"></path>
                        <path d="M25.4439759,0 C24.2282169,6.3453253 20.1025301,17.4081687 13.8890602,17.4081687 C13.8695422,17.4081687 13.8539277,17.4226988 13.8539277,17.4411325 C13.8539277,17.4591325 13.8695422,17.4738795 13.8890602,17.4738795 C13.9300482,17.4738795 13.9714699,17.4710602 14.0124578,17.4699759 C14.0148434,17.4708434 14.0165783,17.4732289 14.0176627,17.4734458 C20.6965301,18.5215663 26.1219036,16.578 30.1406747,11.7008675 C33.124988,8.07809639 34.8399759,3.46901205 36,0 L25.4439759,0" id="Fill-30" fill="#ED1D24"></path>
                    </g>
                    <path d="M54.765625,15.2265625 C54.765625,15.9622433 54.8014319,16.5074852 54.8730469,16.8623047 C54.9446618,17.2171242 55.058593,17.5410142 55.2148438,17.8339844 L55.2148438,18 L51.7285156,18 C51.617838,17.7721343 51.5201827,17.4694029 51.4355469,17.0917969 C51.1555976,17.4433611 50.8203145,17.7151683 50.4296875,17.9072266 C50.0390605,18.0992848 49.5377635,18.1953125 48.9257812,18.1953125 C48.2877572,18.1953125 47.6953152,18.0618503 47.1484375,17.7949219 C46.6015598,17.5279935 46.1653662,17.1520207 45.8398438,16.6669922 C45.5143213,16.1819637 45.3515625,15.6302114 45.3515625,15.0117188 C45.3515625,13.9049424 45.7600871,13.0504587 46.5771484,12.4482422 C47.3942098,11.8460256 48.6490801,11.5449219 50.3417969,11.5449219 L51.25,11.5449219 L51.25,11.0566406 C51.25,10.6334614 51.1604827,10.311199 50.9814453,10.0898438 C50.802408,9.86848848 50.5143249,9.7578125 50.1171875,9.7578125 C49.7721337,9.7578125 49.5166024,9.83756431 49.3505859,9.99707031 C49.1845695,10.1565763 49.1015625,10.418618 49.1015625,10.7832031 L45.6054688,10.7832031 C45.6054688,10.0865851 45.7975241,9.46972925 46.1816406,8.93261719 C46.5657571,8.39550513 47.1126267,7.97884263 47.8222656,7.68261719 C48.5319046,7.38639175 49.3587192,7.23828125 50.3027344,7.23828125 C51.1621137,7.23828125 51.9287076,7.38313657 52.6025391,7.67285156 C53.2763706,7.96256655 53.8053366,8.39550493 54.1894531,8.97167969 C54.5735696,9.54785444 54.765625,10.2493448 54.765625,11.0761719 L54.765625,15.2265625 Z M49.7949219,15.6464844 C50.1464861,15.6464844 50.4475899,15.5830084 50.6982422,15.4560547 C50.9488945,15.3291009 51.1328119,15.1679697 51.25,14.9726562 L51.25,13.4296875 L50.2636719,13.4296875 C49.7558568,13.4296875 49.3929047,13.5712876 49.1748047,13.8544922 C48.9567046,14.1376967 48.8476562,14.4746074 48.8476562,14.8652344 C48.8476562,15.0996105 48.9388012,15.2884107 49.1210938,15.4316406 C49.3033863,15.5748705 49.5279935,15.6464844 49.7949219,15.6464844 Z M66.9173178,7.43359375 L66.9173178,18 L63.6458334,18 L63.5384115,16.8378906 C63.2063786,17.2740907 62.8043644,17.6093738 62.3323568,17.84375 C61.8603493,18.0781262 61.3346384,18.1953125 60.7552084,18.1953125 C59.6549425,18.1953125 58.7890657,17.8763053 58.1575522,17.2382812 C57.5260386,16.6002572 57.2102865,15.6106838 57.2102865,14.2695312 L57.2102865,7.43359375 L60.7161459,7.43359375 L60.7161459,14.2890625 C60.7161459,14.6276059 60.8203115,14.8945303 61.0286459,15.0898438 C61.2369803,15.2851572 61.546222,15.3828125 61.9563803,15.3828125 C62.6529983,15.3828125 63.1347644,15.1549502 63.4016928,14.6992188 L63.4016928,7.43359375 L66.9173178,7.43359375 Z M74.5182293,15.3339844 C74.9088563,15.3339844 75.182291,15.3209637 75.3385418,15.2949219 L75.3385418,17.8925781 C74.7591118,18.0944021 74.1178422,18.1953125 73.4147137,18.1953125 C72.2753851,18.1953125 71.4143911,17.9251329 70.8317059,17.3847656 C70.2490207,16.8443983 69.9576824,15.9980526 69.9576824,14.8457031 L69.9576824,9.96289062 L68.7076824,9.96289062 L68.7076824,7.43359375 L69.9576824,7.43359375 L69.9576824,4.77734375 L73.4635418,4.77734375 L73.4635418,7.43359375 L75.1627606,7.43359375 L75.1627606,9.96289062 L73.4635418,9.96289062 L73.4635418,14.3085938 C73.4635418,14.5755222 73.4928384,14.7822258 73.5514324,14.9287109 C73.6100265,15.075196 73.7141921,15.1793617 73.8639324,15.2412109 C74.0136728,15.3030602 74.2317695,15.3339844 74.5182293,15.3339844 Z M76.6113283,12.6191406 C76.6113283,11.5774687 76.8082665,10.6497437 77.2021486,9.8359375 C77.5960308,9.02213135 78.1787073,8.38574448 78.9501955,7.92675781 C79.7216837,7.46777114 80.6510364,7.23828125 81.7382815,7.23828125 C82.8385474,7.23828125 83.7744104,7.46777114 84.5458986,7.92675781 C85.3173869,8.38574448 85.9000633,9.02050376 86.2939455,9.83105469 C86.6878277,10.6416056 86.8847658,11.5709583 86.8847658,12.6191406 L86.8847658,12.8242188 C86.8847658,13.8724011 86.6878277,14.8001262 86.2939455,15.6074219 C85.9000633,16.4147176 85.3190145,17.0478493 84.5507815,17.5068359 C83.7825484,17.9658226 82.8515682,18.1953125 81.7578127,18.1953125 C80.6640572,18.1953125 79.7298218,17.9658226 78.9550783,17.5068359 C78.1803349,17.0478493 77.5960308,16.4147176 77.2021486,15.6074219 C76.8082665,14.8001262 76.6113283,13.8724011 76.6113283,12.8242188 L76.6113283,12.6191406 Z M80.1074221,12.8242188 C80.1074221,13.6380249 80.226236,14.2646462 80.4638674,14.7041016 C80.7014988,15.1435569 81.1328096,15.3632812 81.7578127,15.3632812 C82.3632845,15.3632812 82.7864573,15.1419293 83.027344,14.6992188 C83.2682306,14.2565082 83.3886721,13.6315145 83.3886721,12.8242188 L83.3886721,12.6191406 C83.3886721,11.8248658 83.2682306,11.2014997 83.027344,10.7490234 C82.7864573,10.2965472 82.3567741,10.0703125 81.7382815,10.0703125 C81.1328097,10.0703125 80.7096368,10.2981748 80.4687502,10.7539062 C80.2278636,11.2096377 80.1074221,11.8313763 80.1074221,12.6191406 L80.1074221,12.8242188 Z M97.3177086,15.6464844 L92.7473961,15.6464844 L92.0247399,18 L88.1087242,18 L93.2942711,3.78125 L96.7513024,3.78125 L101.966146,18 L98.0403649,18 L97.3177086,15.6464844 Z M96.4095055,12.6972656 L95.0227867,8.20507812 L93.6458336,12.6972656 L96.4095055,12.6972656 Z M106.998698,13.9667969 C105.885411,13.7259103 104.990238,13.3336616 104.313151,12.7900391 C103.636065,12.2464166 103.297526,11.5319055 103.297526,10.6464844 C103.297526,10.0279917 103.471678,9.45996353 103.819987,8.94238281 C104.168296,8.4248021 104.674476,8.01139478 105.338542,7.70214844 C106.002608,7.3929021 106.79036,7.23828125 107.701823,7.23828125 C108.652349,7.23828125 109.484046,7.38150898 110.19694,7.66796875 C110.909835,7.95442852 111.458332,8.3596979 111.842448,8.88378906 C112.226565,9.40788022 112.41862,10.0182257 112.41862,10.7148438 L108.912761,10.7148438 C108.912761,10.3111959 108.823243,10.0231128 108.644206,9.85058594 C108.465169,9.67805903 108.147789,9.59179688 107.692058,9.59179688 C107.392577,9.59179688 107.13379,9.66666592 106.91569,9.81640625 C106.69759,9.96614658 106.588542,10.1744778 106.588542,10.4414062 C106.588542,10.9557317 107.145177,11.3007804 108.258464,11.4765625 C109.052739,11.600261 109.747719,11.7809233 110.343425,12.0185547 C110.939131,12.2561861 111.427407,12.6093727 111.808269,13.078125 C112.18913,13.5468773 112.379558,14.1555952 112.379558,14.9042969 C112.379558,15.5293 112.187502,16.0908178 111.803386,16.5888672 C111.419269,17.0869166 110.8724,17.4791652 110.162761,17.765625 C109.453122,18.0520848 108.629562,18.1953125 107.692058,18.1953125 C106.71549,18.1953125 105.870772,18.0179054 105.157878,17.6630859 C104.444984,17.3082665 103.901369,16.8525418 103.527019,16.2958984 C103.152668,15.739255 102.965495,15.1712269 102.965495,14.5917969 L106.217448,14.5917969 C106.230469,15.0019552 106.373697,15.3111969 106.647136,15.5195312 C106.920575,15.7278656 107.30143,15.8320312 107.789714,15.8320312 C108.186851,15.8320312 108.49121,15.7555346 108.7028,15.6025391 C108.914389,15.4495435 109.020183,15.2428398 109.020183,14.9824219 C109.020183,14.8261711 108.959962,14.6943365 108.839519,14.5869141 C108.719075,14.4794917 108.517254,14.3785812 108.23405,14.2841797 C107.950845,14.1897782 107.539066,14.083985 106.998698,13.9667969 Z M119.726563,15.3339844 C120.11719,15.3339844 120.390625,15.3209637 120.546875,15.2949219 L120.546875,17.8925781 C119.967445,18.0944021 119.326176,18.1953125 118.623047,18.1953125 C117.483719,18.1953125 116.622725,17.9251329 116.040039,17.3847656 C115.457354,16.8443983 115.166016,15.9980526 115.166016,14.8457031 L115.166016,9.96289062 L113.916016,9.96289062 L113.916016,7.43359375 L115.166016,7.43359375 L115.166016,4.77734375 L118.671875,4.77734375 L118.671875,7.43359375 L120.371094,7.43359375 L120.371094,9.96289062 L118.671875,9.96289062 L118.671875,14.3085938 C118.671875,14.5755222 118.701172,14.7822258 118.759766,14.9287109 C118.81836,15.075196 118.922526,15.1793617 119.072266,15.2412109 C119.222006,15.3030602 119.440103,15.3339844 119.726563,15.3339844 Z M131.292318,15.2265625 C131.292318,15.9622433 131.328125,16.5074852 131.39974,16.8623047 C131.471355,17.2171242 131.585286,17.5410142 131.741537,17.8339844 L131.741537,18 L128.255209,18 C128.144531,17.7721343 128.046876,17.4694029 127.96224,17.0917969 C127.682291,17.4433611 127.347008,17.7151683 126.956381,17.9072266 C126.565754,18.0992848 126.064457,18.1953125 125.452474,18.1953125 C124.81445,18.1953125 124.222008,18.0618503 123.675131,17.7949219 C123.128253,17.5279935 122.692059,17.1520207 122.366537,16.6669922 C122.041014,16.1819637 121.878256,15.6302114 121.878256,15.0117188 C121.878256,13.9049424 122.28678,13.0504587 123.103842,12.4482422 C123.920903,11.8460256 125.175773,11.5449219 126.86849,11.5449219 L127.776693,11.5449219 L127.776693,11.0566406 C127.776693,10.6334614 127.687176,10.311199 127.508138,10.0898438 C127.329101,9.86848848 127.041018,9.7578125 126.643881,9.7578125 C126.298827,9.7578125 126.043296,9.83756431 125.877279,9.99707031 C125.711263,10.1565763 125.628256,10.418618 125.628256,10.7832031 L122.132162,10.7832031 C122.132162,10.0865851 122.324217,9.46972925 122.708334,8.93261719 C123.09245,8.39550513 123.63932,7.97884263 124.348959,7.68261719 C125.058598,7.38639175 125.885412,7.23828125 126.829428,7.23828125 C127.688807,7.23828125 128.455401,7.38313657 129.129232,7.67285156 C129.803064,7.96256655 130.33203,8.39550493 130.716146,8.97167969 C131.100263,9.54785444 131.292318,10.2493448 131.292318,11.0761719 L131.292318,15.2265625 Z M126.321615,15.6464844 C126.673179,15.6464844 126.974283,15.5830084 127.224935,15.4560547 C127.475588,15.3291009 127.659505,15.1679697 127.776693,14.9726562 L127.776693,13.4296875 L126.790365,13.4296875 C126.28255,13.4296875 125.919598,13.5712876 125.701498,13.8544922 C125.483398,14.1376967 125.374349,14.4746074 125.374349,14.8652344 C125.374349,15.0996105 125.465494,15.2884107 125.647787,15.4316406 C125.83008,15.5748705 126.054687,15.6464844 126.321615,15.6464844 Z M138.883464,15.3339844 C139.274091,15.3339844 139.547526,15.3209637 139.703777,15.2949219 L139.703777,17.8925781 C139.124347,18.0944021 138.483077,18.1953125 137.779948,18.1953125 C136.64062,18.1953125 135.779626,17.9251329 135.196941,17.3847656 C134.614255,16.8443983 134.322917,15.9980526 134.322917,14.8457031 L134.322917,9.96289062 L133.072917,9.96289062 L133.072917,7.43359375 L134.322917,7.43359375 L134.322917,4.77734375 L137.828777,4.77734375 L137.828777,7.43359375 L139.527995,7.43359375 L139.527995,9.96289062 L137.828777,9.96289062 L137.828777,14.3085938 C137.828777,14.5755222 137.858073,14.7822258 137.916667,14.9287109 C137.975261,15.075196 138.079427,15.1793617 138.229167,15.2412109 C138.378908,15.3030602 138.597004,15.3339844 138.883464,15.3339844 Z" id="autoAstat" fill="#1E1F24"></path>
                </g>
            </g>
        </g>
    </g>
</svg>